<mxfile host="app.diagrams.net" agent="Mozilla/5.0 (Windows NT 10.0; Win64; x64) AppleWebKit/537.36 (KHTML, like Gecko) Chrome/133.0.0.0 Safari/537.36" version="26.0.16">
  <diagram id="C5RBs43oDa-KdzZeNtuy" name="Page-1">
    <mxGraphModel grid="1" page="1" gridSize="10" guides="1" tooltips="1" connect="1" arrows="1" fold="1" pageScale="1" pageWidth="1169" pageHeight="827" math="0" shadow="0">
      <root>
        <mxCell id="WIyWlLk6GJQsqaUBKTNV-0" />
        <mxCell id="WIyWlLk6GJQsqaUBKTNV-1" parent="WIyWlLk6GJQsqaUBKTNV-0" />
        <mxCell id="6Ngvt-FFTPElS-cJ8Gvf-13" style="rounded=0;orthogonalLoop=1;jettySize=auto;html=1;exitX=0;exitY=0.5;exitDx=0;exitDy=0;entryX=1;entryY=0.5;entryDx=0;entryDy=0;endArrow=none;startFill=0;" edge="1" parent="WIyWlLk6GJQsqaUBKTNV-1" source="6Ngvt-FFTPElS-cJ8Gvf-2" target="6Ngvt-FFTPElS-cJ8Gvf-12">
          <mxGeometry relative="1" as="geometry" />
        </mxCell>
        <mxCell id="5KRMNu4cu_PVB4xs3GVN-52" value="N" style="edgeLabel;html=1;align=center;verticalAlign=middle;resizable=0;points=[];fontFamily=Helvetica;fontSize=11;fontColor=default;labelBackgroundColor=default;" connectable="0" vertex="1" parent="6Ngvt-FFTPElS-cJ8Gvf-13">
          <mxGeometry x="0.011" relative="1" as="geometry">
            <mxPoint x="-49" y="-10" as="offset" />
          </mxGeometry>
        </mxCell>
        <mxCell id="6Ngvt-FFTPElS-cJ8Gvf-39" style="edgeStyle=none;shape=connector;rounded=0;orthogonalLoop=1;jettySize=auto;html=1;entryX=0.5;entryY=0;entryDx=0;entryDy=0;strokeColor=default;align=center;verticalAlign=middle;fontFamily=Helvetica;fontSize=11;fontColor=default;labelBackgroundColor=default;startFill=0;endArrow=none;" edge="1" parent="WIyWlLk6GJQsqaUBKTNV-1" source="6Ngvt-FFTPElS-cJ8Gvf-2" target="6Ngvt-FFTPElS-cJ8Gvf-38">
          <mxGeometry relative="1" as="geometry" />
        </mxCell>
        <mxCell id="5KRMNu4cu_PVB4xs3GVN-55" value="1" style="edgeLabel;html=1;align=center;verticalAlign=middle;resizable=0;points=[];fontFamily=Helvetica;fontSize=11;fontColor=default;labelBackgroundColor=default;" connectable="0" vertex="1" parent="6Ngvt-FFTPElS-cJ8Gvf-39">
          <mxGeometry x="0.3067" y="-3" relative="1" as="geometry">
            <mxPoint x="-7" y="20" as="offset" />
          </mxGeometry>
        </mxCell>
        <mxCell id="5KRMNu4cu_PVB4xs3GVN-88" style="edgeStyle=none;shape=connector;rounded=0;orthogonalLoop=1;jettySize=auto;html=1;entryX=0.5;entryY=1;entryDx=0;entryDy=0;strokeColor=default;align=center;verticalAlign=middle;fontFamily=Helvetica;fontSize=11;fontColor=default;labelBackgroundColor=default;startFill=0;endArrow=none;" edge="1" parent="WIyWlLk6GJQsqaUBKTNV-1" source="6Ngvt-FFTPElS-cJ8Gvf-2" target="5KRMNu4cu_PVB4xs3GVN-87">
          <mxGeometry relative="1" as="geometry" />
        </mxCell>
        <mxCell id="6Ngvt-FFTPElS-cJ8Gvf-2" value="Atleta" style="whiteSpace=wrap;html=1;align=center;fillColor=#dae8fc;strokeColor=#6c8ebf;gradientColor=#7ea6e0;" vertex="1" parent="WIyWlLk6GJQsqaUBKTNV-1">
          <mxGeometry x="1123.75" y="310" width="92.5" height="40" as="geometry" />
        </mxCell>
        <mxCell id="6Ngvt-FFTPElS-cJ8Gvf-4" value="Escolta" style="whiteSpace=wrap;html=1;align=center;fillColor=#ffcd28;strokeColor=#d79b00;gradientColor=#ffa500;" vertex="1" parent="WIyWlLk6GJQsqaUBKTNV-1">
          <mxGeometry x="680" y="510" width="100" height="40" as="geometry" />
        </mxCell>
        <mxCell id="6Ngvt-FFTPElS-cJ8Gvf-143" style="edgeStyle=none;shape=connector;rounded=0;orthogonalLoop=1;jettySize=auto;html=1;entryX=1;entryY=0.5;entryDx=0;entryDy=0;strokeColor=default;align=center;verticalAlign=middle;fontFamily=Helvetica;fontSize=11;fontColor=default;labelBackgroundColor=default;startFill=0;endArrow=none;" edge="1" parent="WIyWlLk6GJQsqaUBKTNV-1" source="6Ngvt-FFTPElS-cJ8Gvf-6" target="6Ngvt-FFTPElS-cJ8Gvf-41">
          <mxGeometry relative="1" as="geometry" />
        </mxCell>
        <mxCell id="5KRMNu4cu_PVB4xs3GVN-40" value="N" style="edgeLabel;html=1;align=center;verticalAlign=middle;resizable=0;points=[];fontFamily=Helvetica;fontSize=11;fontColor=default;labelBackgroundColor=default;" connectable="0" vertex="1" parent="6Ngvt-FFTPElS-cJ8Gvf-143">
          <mxGeometry x="0.0773" y="-1" relative="1" as="geometry">
            <mxPoint x="-42" y="-14" as="offset" />
          </mxGeometry>
        </mxCell>
        <mxCell id="6Ngvt-FFTPElS-cJ8Gvf-6" value="Amostra" style="whiteSpace=wrap;html=1;align=center;fillColor=#e6d0de;strokeColor=#996185;gradientColor=#d5739d;" vertex="1" parent="WIyWlLk6GJQsqaUBKTNV-1">
          <mxGeometry x="1120" y="600" width="100" height="40" as="geometry" />
        </mxCell>
        <mxCell id="5KRMNu4cu_PVB4xs3GVN-77" style="edgeStyle=orthogonalEdgeStyle;shape=connector;rounded=0;orthogonalLoop=1;jettySize=auto;html=1;entryX=0.5;entryY=1;entryDx=0;entryDy=0;strokeColor=default;align=center;verticalAlign=middle;fontFamily=Helvetica;fontSize=11;fontColor=default;labelBackgroundColor=default;startFill=0;endArrow=none;" edge="1" parent="WIyWlLk6GJQsqaUBKTNV-1" source="6Ngvt-FFTPElS-cJ8Gvf-7" target="6Ngvt-FFTPElS-cJ8Gvf-41">
          <mxGeometry relative="1" as="geometry" />
        </mxCell>
        <mxCell id="5KRMNu4cu_PVB4xs3GVN-79" value="N" style="edgeLabel;html=1;align=center;verticalAlign=middle;resizable=0;points=[];fontFamily=Helvetica;fontSize=11;fontColor=default;labelBackgroundColor=default;" connectable="0" vertex="1" parent="5KRMNu4cu_PVB4xs3GVN-77">
          <mxGeometry x="0.6417" y="-2" relative="1" as="geometry">
            <mxPoint x="-27" y="-13" as="offset" />
          </mxGeometry>
        </mxCell>
        <mxCell id="6Ngvt-FFTPElS-cJ8Gvf-7" value="Autoridades" style="whiteSpace=wrap;html=1;align=center;fillColor=#ffcd28;gradientColor=#ffa500;strokeColor=#d79b00;" vertex="1" parent="WIyWlLk6GJQsqaUBKTNV-1">
          <mxGeometry x="680" y="690" width="100" height="40" as="geometry" />
        </mxCell>
        <mxCell id="6Ngvt-FFTPElS-cJ8Gvf-8" value="Endereço" style="whiteSpace=wrap;html=1;align=center;fillColor=#dae8fc;strokeColor=#6c8ebf;gradientColor=#7ea6e0;" vertex="1" parent="WIyWlLk6GJQsqaUBKTNV-1">
          <mxGeometry x="1530" y="310" width="100" height="40" as="geometry" />
        </mxCell>
        <mxCell id="6Ngvt-FFTPElS-cJ8Gvf-9" value="Técnico" style="whiteSpace=wrap;html=1;align=center;fillColor=#dae8fc;strokeColor=#6c8ebf;gradientColor=#7ea6e0;" vertex="1" parent="WIyWlLk6GJQsqaUBKTNV-1">
          <mxGeometry x="780" y="260" width="100" height="40" as="geometry" />
        </mxCell>
        <mxCell id="6Ngvt-FFTPElS-cJ8Gvf-10" value="Médico" style="whiteSpace=wrap;html=1;align=center;fillColor=#dae8fc;strokeColor=#6c8ebf;gradientColor=#7ea6e0;" vertex="1" parent="WIyWlLk6GJQsqaUBKTNV-1">
          <mxGeometry x="780" y="350" width="100" height="40" as="geometry" />
        </mxCell>
        <mxCell id="6Ngvt-FFTPElS-cJ8Gvf-15" style="edgeStyle=none;shape=connector;rounded=0;orthogonalLoop=1;jettySize=auto;html=1;exitX=0;exitY=0;exitDx=0;exitDy=0;entryX=1;entryY=0.5;entryDx=0;entryDy=0;strokeColor=default;align=center;verticalAlign=middle;fontFamily=Helvetica;fontSize=11;fontColor=default;labelBackgroundColor=default;startFill=0;endArrow=none;" edge="1" parent="WIyWlLk6GJQsqaUBKTNV-1" source="6Ngvt-FFTPElS-cJ8Gvf-12" target="6Ngvt-FFTPElS-cJ8Gvf-9">
          <mxGeometry relative="1" as="geometry" />
        </mxCell>
        <mxCell id="5KRMNu4cu_PVB4xs3GVN-53" value="1" style="edgeLabel;html=1;align=center;verticalAlign=middle;resizable=0;points=[];fontFamily=Helvetica;fontSize=11;fontColor=default;labelBackgroundColor=default;" connectable="0" vertex="1" parent="6Ngvt-FFTPElS-cJ8Gvf-15">
          <mxGeometry x="0.2004" y="-1" relative="1" as="geometry">
            <mxPoint y="16" as="offset" />
          </mxGeometry>
        </mxCell>
        <mxCell id="6Ngvt-FFTPElS-cJ8Gvf-16" style="edgeStyle=none;shape=connector;rounded=0;orthogonalLoop=1;jettySize=auto;html=1;exitX=0;exitY=1;exitDx=0;exitDy=0;entryX=1;entryY=0.5;entryDx=0;entryDy=0;strokeColor=default;align=center;verticalAlign=middle;fontFamily=Helvetica;fontSize=11;fontColor=default;labelBackgroundColor=default;startFill=0;endArrow=none;" edge="1" parent="WIyWlLk6GJQsqaUBKTNV-1" source="6Ngvt-FFTPElS-cJ8Gvf-12" target="6Ngvt-FFTPElS-cJ8Gvf-10">
          <mxGeometry relative="1" as="geometry" />
        </mxCell>
        <mxCell id="5KRMNu4cu_PVB4xs3GVN-54" value="1" style="edgeLabel;html=1;align=center;verticalAlign=middle;resizable=0;points=[];fontFamily=Helvetica;fontSize=11;fontColor=default;labelBackgroundColor=default;" connectable="0" vertex="1" parent="6Ngvt-FFTPElS-cJ8Gvf-16">
          <mxGeometry x="0.1726" relative="1" as="geometry">
            <mxPoint y="-9" as="offset" />
          </mxGeometry>
        </mxCell>
        <mxCell id="6Ngvt-FFTPElS-cJ8Gvf-12" value="orientado por" style="shape=rhombus;perimeter=rhombusPerimeter;whiteSpace=wrap;html=1;align=center;" vertex="1" parent="WIyWlLk6GJQsqaUBKTNV-1">
          <mxGeometry x="915" y="305" width="80" height="50" as="geometry" />
        </mxCell>
        <mxCell id="6Ngvt-FFTPElS-cJ8Gvf-19" style="edgeStyle=none;shape=connector;rounded=0;orthogonalLoop=1;jettySize=auto;html=1;entryX=1;entryY=0.5;entryDx=0;entryDy=0;strokeColor=default;align=center;verticalAlign=middle;fontFamily=Helvetica;fontSize=11;fontColor=default;labelBackgroundColor=default;startFill=0;endArrow=none;" edge="1" parent="WIyWlLk6GJQsqaUBKTNV-1" source="6Ngvt-FFTPElS-cJ8Gvf-17" target="6Ngvt-FFTPElS-cJ8Gvf-6">
          <mxGeometry relative="1" as="geometry" />
        </mxCell>
        <mxCell id="5KRMNu4cu_PVB4xs3GVN-43" value="N" style="edgeLabel;html=1;align=center;verticalAlign=middle;resizable=0;points=[];fontFamily=Helvetica;fontSize=11;fontColor=default;labelBackgroundColor=default;" connectable="0" vertex="1" parent="6Ngvt-FFTPElS-cJ8Gvf-19">
          <mxGeometry x="-0.2658" y="-3" relative="1" as="geometry">
            <mxPoint x="1" y="13" as="offset" />
          </mxGeometry>
        </mxCell>
        <mxCell id="5KRMNu4cu_PVB4xs3GVN-80" value="1" style="edgeStyle=orthogonalEdgeStyle;shape=connector;rounded=0;orthogonalLoop=1;jettySize=auto;html=1;entryX=0;entryY=0.5;entryDx=0;entryDy=0;strokeColor=default;align=center;verticalAlign=middle;fontFamily=Helvetica;fontSize=11;fontColor=default;labelBackgroundColor=default;startFill=0;endArrow=none;" edge="1" parent="WIyWlLk6GJQsqaUBKTNV-1" source="6Ngvt-FFTPElS-cJ8Gvf-17" target="6Ngvt-FFTPElS-cJ8Gvf-148">
          <mxGeometry x="-0.9529" y="25" relative="1" as="geometry">
            <Array as="points">
              <mxPoint x="1385" y="570" />
              <mxPoint x="1460" y="570" />
              <mxPoint x="1460" y="520" />
            </Array>
            <mxPoint as="offset" />
          </mxGeometry>
        </mxCell>
        <mxCell id="6Ngvt-FFTPElS-cJ8Gvf-17" value="realiza por" style="shape=rhombus;perimeter=rhombusPerimeter;whiteSpace=wrap;html=1;align=center;" vertex="1" parent="WIyWlLk6GJQsqaUBKTNV-1">
          <mxGeometry x="1345" y="595" width="80" height="50" as="geometry" />
        </mxCell>
        <mxCell id="6Ngvt-FFTPElS-cJ8Gvf-91" style="edgeStyle=none;shape=connector;rounded=0;orthogonalLoop=1;jettySize=auto;html=1;entryX=0;entryY=0;entryDx=0;entryDy=0;strokeColor=default;align=center;verticalAlign=middle;fontFamily=Helvetica;fontSize=11;fontColor=default;labelBackgroundColor=default;startFill=0;endArrow=none;" edge="1" parent="WIyWlLk6GJQsqaUBKTNV-1" source="6Ngvt-FFTPElS-cJ8Gvf-20" target="6Ngvt-FFTPElS-cJ8Gvf-2">
          <mxGeometry relative="1" as="geometry" />
        </mxCell>
        <mxCell id="6Ngvt-FFTPElS-cJ8Gvf-20" value="Nome" style="ellipse;whiteSpace=wrap;html=1;align=center;fontFamily=Helvetica;fontSize=11;fontColor=default;labelBackgroundColor=default;" vertex="1" parent="WIyWlLk6GJQsqaUBKTNV-1">
          <mxGeometry x="1035" y="273.75" width="70" height="25" as="geometry" />
        </mxCell>
        <mxCell id="6Ngvt-FFTPElS-cJ8Gvf-50" style="edgeStyle=none;shape=connector;rounded=0;orthogonalLoop=1;jettySize=auto;html=1;entryX=0;entryY=0.5;entryDx=0;entryDy=0;strokeColor=default;align=center;verticalAlign=middle;fontFamily=Helvetica;fontSize=11;fontColor=default;labelBackgroundColor=default;startFill=0;endArrow=none;" edge="1" parent="WIyWlLk6GJQsqaUBKTNV-1" source="6Ngvt-FFTPElS-cJ8Gvf-22" target="6Ngvt-FFTPElS-cJ8Gvf-9">
          <mxGeometry relative="1" as="geometry" />
        </mxCell>
        <mxCell id="6Ngvt-FFTPElS-cJ8Gvf-22" value="Nome" style="ellipse;whiteSpace=wrap;html=1;align=center;fontFamily=Helvetica;fontSize=11;fontColor=default;labelBackgroundColor=default;" vertex="1" parent="WIyWlLk6GJQsqaUBKTNV-1">
          <mxGeometry x="670" y="265" width="70" height="30" as="geometry" />
        </mxCell>
        <mxCell id="V3Zo6xO8YrQuQeShcWqh-7" style="edgeStyle=none;shape=connector;rounded=0;orthogonalLoop=1;jettySize=auto;html=1;exitX=0.75;exitY=1;exitDx=0;exitDy=0;strokeColor=default;align=center;verticalAlign=middle;fontFamily=Helvetica;fontSize=11;fontColor=default;labelBackgroundColor=default;startFill=0;endArrow=none;" edge="1" parent="WIyWlLk6GJQsqaUBKTNV-1" source="6Ngvt-FFTPElS-cJ8Gvf-2" target="6Ngvt-FFTPElS-cJ8Gvf-2">
          <mxGeometry relative="1" as="geometry" />
        </mxCell>
        <mxCell id="6Ngvt-FFTPElS-cJ8Gvf-26" style="edgeStyle=none;shape=connector;rounded=0;orthogonalLoop=1;jettySize=auto;html=1;strokeColor=default;align=center;verticalAlign=middle;fontFamily=Helvetica;fontSize=11;fontColor=default;labelBackgroundColor=default;startFill=0;endArrow=none;" edge="1" parent="WIyWlLk6GJQsqaUBKTNV-1" source="6Ngvt-FFTPElS-cJ8Gvf-25" target="6Ngvt-FFTPElS-cJ8Gvf-2">
          <mxGeometry relative="1" as="geometry" />
        </mxCell>
        <mxCell id="5KRMNu4cu_PVB4xs3GVN-35" value="N" style="edgeLabel;html=1;align=center;verticalAlign=middle;resizable=0;points=[];fontFamily=Helvetica;fontSize=11;fontColor=default;labelBackgroundColor=default;" vertex="1" connectable="0" parent="6Ngvt-FFTPElS-cJ8Gvf-26">
          <mxGeometry x="-0.3706" y="-2" relative="1" as="geometry">
            <mxPoint x="24" y="-8" as="offset" />
          </mxGeometry>
        </mxCell>
        <mxCell id="6Ngvt-FFTPElS-cJ8Gvf-27" style="edgeStyle=none;shape=connector;rounded=0;orthogonalLoop=1;jettySize=auto;html=1;entryX=0;entryY=0.5;entryDx=0;entryDy=0;strokeColor=default;align=center;verticalAlign=middle;fontFamily=Helvetica;fontSize=11;fontColor=default;labelBackgroundColor=default;startFill=0;endArrow=none;" edge="1" parent="WIyWlLk6GJQsqaUBKTNV-1" source="6Ngvt-FFTPElS-cJ8Gvf-25" target="6Ngvt-FFTPElS-cJ8Gvf-8">
          <mxGeometry relative="1" as="geometry" />
        </mxCell>
        <mxCell id="5KRMNu4cu_PVB4xs3GVN-36" value="1" style="edgeLabel;html=1;align=center;verticalAlign=middle;resizable=0;points=[];fontFamily=Helvetica;fontSize=11;fontColor=default;labelBackgroundColor=default;" vertex="1" connectable="0" parent="6Ngvt-FFTPElS-cJ8Gvf-27">
          <mxGeometry x="-0.1509" y="2" relative="1" as="geometry">
            <mxPoint x="-30" y="-8" as="offset" />
          </mxGeometry>
        </mxCell>
        <mxCell id="6Ngvt-FFTPElS-cJ8Gvf-25" value="possui" style="shape=rhombus;perimeter=rhombusPerimeter;whiteSpace=wrap;html=1;align=center;" vertex="1" parent="WIyWlLk6GJQsqaUBKTNV-1">
          <mxGeometry x="1345" y="305" width="80" height="50" as="geometry" />
        </mxCell>
        <mxCell id="6Ngvt-FFTPElS-cJ8Gvf-95" style="edgeStyle=none;shape=connector;rounded=0;orthogonalLoop=1;jettySize=auto;html=1;entryX=0.75;entryY=0;entryDx=0;entryDy=0;strokeColor=default;align=center;verticalAlign=middle;fontFamily=Helvetica;fontSize=11;fontColor=default;labelBackgroundColor=default;startFill=0;endArrow=none;" edge="1" parent="WIyWlLk6GJQsqaUBKTNV-1" source="V3Zo6xO8YrQuQeShcWqh-8" target="6Ngvt-FFTPElS-cJ8Gvf-2">
          <mxGeometry relative="1" as="geometry" />
        </mxCell>
        <mxCell id="V3Zo6xO8YrQuQeShcWqh-8" value="Nacionalidade" style="ellipse;whiteSpace=wrap;html=1;align=center;fontFamily=Helvetica;fontSize=11;fontColor=default;labelBackgroundColor=default;" vertex="1" parent="WIyWlLk6GJQsqaUBKTNV-1">
          <mxGeometry x="1205" y="238.75" width="70" height="28.75" as="geometry" />
        </mxCell>
        <mxCell id="V3Zo6xO8YrQuQeShcWqh-9" value="" style="ellipse;whiteSpace=wrap;html=1;align=center;fontFamily=Helvetica;fontSize=11;fontColor=default;labelBackgroundColor=default;" vertex="1" parent="WIyWlLk6GJQsqaUBKTNV-1">
          <mxGeometry x="775" y="720" width="50" as="geometry" />
        </mxCell>
        <mxCell id="6Ngvt-FFTPElS-cJ8Gvf-35" style="edgeStyle=none;shape=connector;rounded=0;orthogonalLoop=1;jettySize=auto;html=1;entryX=0.5;entryY=0;entryDx=0;entryDy=0;strokeColor=default;align=center;verticalAlign=middle;fontFamily=Helvetica;fontSize=11;fontColor=default;labelBackgroundColor=default;startFill=0;endArrow=none;" edge="1" parent="WIyWlLk6GJQsqaUBKTNV-1" source="6Ngvt-FFTPElS-cJ8Gvf-30" target="6Ngvt-FFTPElS-cJ8Gvf-8">
          <mxGeometry relative="1" as="geometry" />
        </mxCell>
        <mxCell id="6Ngvt-FFTPElS-cJ8Gvf-30" value="CEP" style="ellipse;whiteSpace=wrap;html=1;align=center;fontFamily=Helvetica;fontSize=11;fontColor=default;labelBackgroundColor=default;" vertex="1" parent="WIyWlLk6GJQsqaUBKTNV-1">
          <mxGeometry x="1545" y="227.5" width="70" height="30" as="geometry" />
        </mxCell>
        <mxCell id="6Ngvt-FFTPElS-cJ8Gvf-36" style="edgeStyle=none;shape=connector;rounded=0;orthogonalLoop=1;jettySize=auto;html=1;entryX=0.75;entryY=0;entryDx=0;entryDy=0;strokeColor=default;align=center;verticalAlign=middle;fontFamily=Helvetica;fontSize=11;fontColor=default;labelBackgroundColor=default;startFill=0;endArrow=none;" edge="1" parent="WIyWlLk6GJQsqaUBKTNV-1" source="6Ngvt-FFTPElS-cJ8Gvf-31" target="6Ngvt-FFTPElS-cJ8Gvf-8">
          <mxGeometry relative="1" as="geometry" />
        </mxCell>
        <mxCell id="6Ngvt-FFTPElS-cJ8Gvf-31" value="Estado" style="ellipse;whiteSpace=wrap;html=1;align=center;fontFamily=Helvetica;fontSize=11;fontColor=default;labelBackgroundColor=default;" vertex="1" parent="WIyWlLk6GJQsqaUBKTNV-1">
          <mxGeometry x="1600" y="257.5" width="70" height="30" as="geometry" />
        </mxCell>
        <mxCell id="6Ngvt-FFTPElS-cJ8Gvf-29" value="Nº" style="ellipse;whiteSpace=wrap;html=1;align=center;fontFamily=Helvetica;fontSize=11;fontColor=default;labelBackgroundColor=default;" vertex="1" parent="WIyWlLk6GJQsqaUBKTNV-1">
          <mxGeometry x="1490" y="252.5" width="70" height="30" as="geometry" />
        </mxCell>
        <mxCell id="5KRMNu4cu_PVB4xs3GVN-1" style="edgeStyle=none;shape=connector;rounded=0;orthogonalLoop=1;jettySize=auto;html=1;entryX=0.25;entryY=1;entryDx=0;entryDy=0;strokeColor=default;align=center;verticalAlign=middle;fontFamily=Helvetica;fontSize=11;fontColor=default;labelBackgroundColor=default;startFill=0;endArrow=none;" edge="1" parent="WIyWlLk6GJQsqaUBKTNV-1" source="6Ngvt-FFTPElS-cJ8Gvf-28" target="6Ngvt-FFTPElS-cJ8Gvf-8">
          <mxGeometry relative="1" as="geometry" />
        </mxCell>
        <mxCell id="6Ngvt-FFTPElS-cJ8Gvf-28" value="Rua&lt;span style=&quot;color: rgba(0, 0, 0, 0); font-family: monospace; font-size: 0px; text-align: start; text-wrap-mode: nowrap; background-color: rgb(251, 251, 251);&quot;&gt;%3CmxGraphModel%3E%3Croot%3E%3CmxCell%20id%3D%220%22%2F%3E%3CmxCell%20id%3D%221%22%20parent%3D%220%22%2F%3E%3CmxCell%20id%3D%222%22%20value%3D%22Nome%22%20style%3D%22ellipse%3BwhiteSpace%3Dwrap%3Bhtml%3D1%3Balign%3Dcenter%3BfontFamily%3DHelvetica%3BfontSize%3D11%3BfontColor%3Ddefault%3BlabelBackgroundColor%3Ddefault%3B%22%20vertex%3D%221%22%20parent%3D%221%22%3E%3CmxGeometry%20x%3D%22560%22%20y%3D%22360%22%20width%3D%2270%22%20height%3D%2230%22%20as%3D%22geometry%22%2F%3E%3C%2FmxCell%3E%3C%2Froot%3E%3C%2FmxGraphModel%3E&lt;/span&gt;" style="ellipse;whiteSpace=wrap;html=1;align=center;fontFamily=Helvetica;fontSize=11;fontColor=default;labelBackgroundColor=default;" vertex="1" parent="WIyWlLk6GJQsqaUBKTNV-1">
          <mxGeometry x="1490" y="390" width="70" height="30" as="geometry" />
        </mxCell>
        <mxCell id="6Ngvt-FFTPElS-cJ8Gvf-40" style="edgeStyle=none;shape=connector;rounded=0;orthogonalLoop=1;jettySize=auto;html=1;entryX=0.5;entryY=0;entryDx=0;entryDy=0;strokeColor=default;align=center;verticalAlign=middle;fontFamily=Helvetica;fontSize=11;fontColor=default;labelBackgroundColor=default;startFill=0;endArrow=none;" edge="1" parent="WIyWlLk6GJQsqaUBKTNV-1" source="6Ngvt-FFTPElS-cJ8Gvf-38" target="6Ngvt-FFTPElS-cJ8Gvf-6">
          <mxGeometry relative="1" as="geometry" />
        </mxCell>
        <mxCell id="5KRMNu4cu_PVB4xs3GVN-56" value="N" style="edgeLabel;html=1;align=center;verticalAlign=middle;resizable=0;points=[];fontFamily=Helvetica;fontSize=11;fontColor=default;labelBackgroundColor=default;" connectable="0" vertex="1" parent="6Ngvt-FFTPElS-cJ8Gvf-40">
          <mxGeometry x="-0.621" relative="1" as="geometry">
            <mxPoint x="-10" y="-9" as="offset" />
          </mxGeometry>
        </mxCell>
        <mxCell id="6Ngvt-FFTPElS-cJ8Gvf-38" value="fornece" style="shape=rhombus;perimeter=rhombusPerimeter;whiteSpace=wrap;html=1;align=center;" vertex="1" parent="WIyWlLk6GJQsqaUBKTNV-1">
          <mxGeometry x="1130" y="450" width="80" height="50" as="geometry" />
        </mxCell>
        <mxCell id="V3Zo6xO8YrQuQeShcWqh-17" style="edgeStyle=none;shape=connector;rounded=0;orthogonalLoop=1;jettySize=auto;html=1;exitX=1;exitY=0;exitDx=0;exitDy=0;strokeColor=default;align=center;verticalAlign=middle;fontFamily=Helvetica;fontSize=11;fontColor=default;labelBackgroundColor=default;startFill=0;endArrow=none;" edge="1" parent="WIyWlLk6GJQsqaUBKTNV-1">
          <mxGeometry relative="1" as="geometry">
            <mxPoint x="814.6915150564173" y="728.737862034752" as="sourcePoint" />
            <mxPoint x="814.4209821475379" y="728.5095357101666" as="targetPoint" />
          </mxGeometry>
        </mxCell>
        <mxCell id="6Ngvt-FFTPElS-cJ8Gvf-41" value="fiscalizada por" style="shape=rhombus;perimeter=rhombusPerimeter;whiteSpace=wrap;html=1;align=center;" vertex="1" parent="WIyWlLk6GJQsqaUBKTNV-1">
          <mxGeometry x="915" y="595" width="80" height="50" as="geometry" />
        </mxCell>
        <mxCell id="6Ngvt-FFTPElS-cJ8Gvf-34" style="edgeStyle=none;shape=connector;rounded=0;orthogonalLoop=1;jettySize=auto;html=1;entryX=0.25;entryY=0;entryDx=0;entryDy=0;strokeColor=default;align=center;verticalAlign=middle;fontFamily=Helvetica;fontSize=11;fontColor=default;labelBackgroundColor=default;startFill=0;endArrow=none;" edge="1" parent="WIyWlLk6GJQsqaUBKTNV-1" source="6Ngvt-FFTPElS-cJ8Gvf-29" target="6Ngvt-FFTPElS-cJ8Gvf-8">
          <mxGeometry relative="1" as="geometry" />
        </mxCell>
        <mxCell id="6Ngvt-FFTPElS-cJ8Gvf-48" style="edgeStyle=none;shape=connector;rounded=0;orthogonalLoop=1;jettySize=auto;html=1;entryX=0.25;entryY=0;entryDx=0;entryDy=0;strokeColor=default;align=center;verticalAlign=middle;fontFamily=Helvetica;fontSize=11;fontColor=default;labelBackgroundColor=default;startFill=0;endArrow=none;" edge="1" parent="WIyWlLk6GJQsqaUBKTNV-1" source="6Ngvt-FFTPElS-cJ8Gvf-45" target="6Ngvt-FFTPElS-cJ8Gvf-4">
          <mxGeometry relative="1" as="geometry" />
        </mxCell>
        <mxCell id="6Ngvt-FFTPElS-cJ8Gvf-45" value="Nome" style="ellipse;whiteSpace=wrap;html=1;align=center;fontFamily=Helvetica;fontSize=11;fontColor=default;labelBackgroundColor=default;" vertex="1" parent="WIyWlLk6GJQsqaUBKTNV-1">
          <mxGeometry x="655" y="450" width="70" height="30" as="geometry" />
        </mxCell>
        <mxCell id="6Ngvt-FFTPElS-cJ8Gvf-142" style="edgeStyle=none;shape=connector;rounded=0;orthogonalLoop=1;jettySize=auto;html=1;entryX=0.75;entryY=0;entryDx=0;entryDy=0;strokeColor=default;align=center;verticalAlign=middle;fontFamily=Helvetica;fontSize=11;fontColor=default;labelBackgroundColor=default;startFill=0;endArrow=none;" edge="1" parent="WIyWlLk6GJQsqaUBKTNV-1" source="6Ngvt-FFTPElS-cJ8Gvf-46" target="6Ngvt-FFTPElS-cJ8Gvf-4">
          <mxGeometry relative="1" as="geometry" />
        </mxCell>
        <mxCell id="6Ngvt-FFTPElS-cJ8Gvf-46" value="Assinatura" style="ellipse;whiteSpace=wrap;html=1;align=center;fontFamily=Helvetica;fontSize=11;fontColor=default;labelBackgroundColor=default;" vertex="1" parent="WIyWlLk6GJQsqaUBKTNV-1">
          <mxGeometry x="740" y="450" width="70" height="30" as="geometry" />
        </mxCell>
        <mxCell id="6Ngvt-FFTPElS-cJ8Gvf-43" style="edgeStyle=orthogonalEdgeStyle;shape=connector;rounded=0;orthogonalLoop=1;jettySize=auto;html=1;entryX=1;entryY=0.5;entryDx=0;entryDy=0;strokeColor=default;align=center;verticalAlign=middle;fontFamily=Helvetica;fontSize=11;fontColor=default;labelBackgroundColor=default;startFill=0;endArrow=none;" edge="1" parent="WIyWlLk6GJQsqaUBKTNV-1" source="6Ngvt-FFTPElS-cJ8Gvf-41" target="6Ngvt-FFTPElS-cJ8Gvf-4">
          <mxGeometry relative="1" as="geometry">
            <Array as="points">
              <mxPoint x="955" y="530" />
            </Array>
          </mxGeometry>
        </mxCell>
        <mxCell id="5KRMNu4cu_PVB4xs3GVN-41" value="1" style="edgeLabel;html=1;align=center;verticalAlign=middle;resizable=0;points=[];fontFamily=Helvetica;fontSize=11;fontColor=default;labelBackgroundColor=default;" connectable="0" vertex="1" parent="6Ngvt-FFTPElS-cJ8Gvf-43">
          <mxGeometry x="0.2992" relative="1" as="geometry">
            <mxPoint x="66" y="40" as="offset" />
          </mxGeometry>
        </mxCell>
        <mxCell id="5KRMNu4cu_PVB4xs3GVN-0" style="rounded=0;orthogonalLoop=1;jettySize=auto;html=1;entryX=0.75;entryY=1;entryDx=0;entryDy=0;endArrow=none;startFill=0;" edge="1" parent="WIyWlLk6GJQsqaUBKTNV-1" source="6Ngvt-FFTPElS-cJ8Gvf-32" target="6Ngvt-FFTPElS-cJ8Gvf-8">
          <mxGeometry relative="1" as="geometry" />
        </mxCell>
        <mxCell id="6Ngvt-FFTPElS-cJ8Gvf-32" value="País" style="ellipse;whiteSpace=wrap;html=1;align=center;fontFamily=Helvetica;fontSize=11;fontColor=default;labelBackgroundColor=default;" vertex="1" parent="WIyWlLk6GJQsqaUBKTNV-1">
          <mxGeometry x="1600" y="390" width="70" height="30" as="geometry" />
        </mxCell>
        <mxCell id="6Ngvt-FFTPElS-cJ8Gvf-52" style="edgeStyle=none;shape=connector;rounded=0;orthogonalLoop=1;jettySize=auto;html=1;entryX=0;entryY=0.5;entryDx=0;entryDy=0;strokeColor=default;align=center;verticalAlign=middle;fontFamily=Helvetica;fontSize=11;fontColor=default;labelBackgroundColor=default;startFill=0;endArrow=none;" edge="1" parent="WIyWlLk6GJQsqaUBKTNV-1" source="6Ngvt-FFTPElS-cJ8Gvf-51" target="6Ngvt-FFTPElS-cJ8Gvf-10">
          <mxGeometry relative="1" as="geometry" />
        </mxCell>
        <mxCell id="6Ngvt-FFTPElS-cJ8Gvf-51" value="Nome" style="ellipse;whiteSpace=wrap;html=1;align=center;fontFamily=Helvetica;fontSize=11;fontColor=default;labelBackgroundColor=default;" vertex="1" parent="WIyWlLk6GJQsqaUBKTNV-1">
          <mxGeometry x="670" y="355" width="70" height="30" as="geometry" />
        </mxCell>
        <mxCell id="5KRMNu4cu_PVB4xs3GVN-84" style="edgeStyle=none;shape=connector;rounded=0;orthogonalLoop=1;jettySize=auto;html=1;entryX=0.25;entryY=1;entryDx=0;entryDy=0;strokeColor=default;align=center;verticalAlign=middle;fontFamily=Helvetica;fontSize=11;fontColor=default;labelBackgroundColor=default;startFill=0;endArrow=none;" edge="1" parent="WIyWlLk6GJQsqaUBKTNV-1" source="6Ngvt-FFTPElS-cJ8Gvf-54" target="6Ngvt-FFTPElS-cJ8Gvf-4">
          <mxGeometry relative="1" as="geometry" />
        </mxCell>
        <mxCell id="6Ngvt-FFTPElS-cJ8Gvf-54" value="Data da Escolta" style="ellipse;whiteSpace=wrap;html=1;align=center;fontFamily=Helvetica;fontSize=11;fontColor=default;labelBackgroundColor=default;" vertex="1" parent="WIyWlLk6GJQsqaUBKTNV-1">
          <mxGeometry x="655" y="580" width="70" height="30" as="geometry" />
        </mxCell>
        <mxCell id="6Ngvt-FFTPElS-cJ8Gvf-57" style="edgeStyle=none;shape=connector;rounded=0;orthogonalLoop=1;jettySize=auto;html=1;entryX=0.75;entryY=1;entryDx=0;entryDy=0;strokeColor=default;align=center;verticalAlign=middle;fontFamily=Helvetica;fontSize=11;fontColor=default;labelBackgroundColor=default;startFill=0;endArrow=none;" edge="1" parent="WIyWlLk6GJQsqaUBKTNV-1" source="6Ngvt-FFTPElS-cJ8Gvf-55" target="6Ngvt-FFTPElS-cJ8Gvf-4">
          <mxGeometry relative="1" as="geometry" />
        </mxCell>
        <mxCell id="6Ngvt-FFTPElS-cJ8Gvf-55" value="Hora da Escolta" style="ellipse;whiteSpace=wrap;html=1;align=center;fontFamily=Helvetica;fontSize=11;fontColor=default;labelBackgroundColor=default;" vertex="1" parent="WIyWlLk6GJQsqaUBKTNV-1">
          <mxGeometry x="740" y="580" width="70" height="30" as="geometry" />
        </mxCell>
        <mxCell id="6Ngvt-FFTPElS-cJ8Gvf-96" style="edgeStyle=none;shape=connector;rounded=0;orthogonalLoop=1;jettySize=auto;html=1;entryX=1;entryY=0;entryDx=0;entryDy=0;strokeColor=default;align=center;verticalAlign=middle;fontFamily=Helvetica;fontSize=11;fontColor=default;labelBackgroundColor=default;startFill=0;endArrow=none;" edge="1" parent="WIyWlLk6GJQsqaUBKTNV-1" source="V3Zo6xO8YrQuQeShcWqh-18" target="6Ngvt-FFTPElS-cJ8Gvf-2">
          <mxGeometry relative="1" as="geometry" />
        </mxCell>
        <mxCell id="V3Zo6xO8YrQuQeShcWqh-18" value="e-mail" style="ellipse;whiteSpace=wrap;html=1;align=center;fontFamily=Helvetica;fontSize=11;fontColor=default;labelBackgroundColor=default;" vertex="1" parent="WIyWlLk6GJQsqaUBKTNV-1">
          <mxGeometry x="1235" y="272.5" width="70" height="27.5" as="geometry" />
        </mxCell>
        <mxCell id="6Ngvt-FFTPElS-cJ8Gvf-61" style="edgeStyle=none;shape=connector;rounded=0;orthogonalLoop=1;jettySize=auto;html=1;entryX=0;entryY=0;entryDx=0;entryDy=0;strokeColor=default;align=center;verticalAlign=middle;fontFamily=Helvetica;fontSize=11;fontColor=default;labelBackgroundColor=default;startFill=0;endArrow=none;" edge="1" parent="WIyWlLk6GJQsqaUBKTNV-1" source="6Ngvt-FFTPElS-cJ8Gvf-60" target="6Ngvt-FFTPElS-cJ8Gvf-6">
          <mxGeometry relative="1" as="geometry" />
        </mxCell>
        <mxCell id="6Ngvt-FFTPElS-cJ8Gvf-60" value="data_coleta_&lt;div&gt;amostra&lt;/div&gt;" style="ellipse;whiteSpace=wrap;html=1;align=center;fontFamily=Helvetica;fontSize=11;fontColor=default;labelBackgroundColor=default;" vertex="1" parent="WIyWlLk6GJQsqaUBKTNV-1">
          <mxGeometry x="1030" y="530" width="70" height="30" as="geometry" />
        </mxCell>
        <mxCell id="6Ngvt-FFTPElS-cJ8Gvf-83" style="edgeStyle=none;shape=connector;rounded=0;orthogonalLoop=1;jettySize=auto;html=1;strokeColor=default;align=center;verticalAlign=middle;fontFamily=Helvetica;fontSize=11;fontColor=default;labelBackgroundColor=default;startFill=0;endArrow=none;" edge="1" parent="WIyWlLk6GJQsqaUBKTNV-1" source="6Ngvt-FFTPElS-cJ8Gvf-62" target="6Ngvt-FFTPElS-cJ8Gvf-72">
          <mxGeometry relative="1" as="geometry" />
        </mxCell>
        <mxCell id="6Ngvt-FFTPElS-cJ8Gvf-62" value="Testemunhas" style="ellipse;shape=doubleEllipse;margin=3;whiteSpace=wrap;html=1;align=center;fontFamily=Helvetica;fontSize=11;fontColor=default;labelBackgroundColor=default;" vertex="1" parent="WIyWlLk6GJQsqaUBKTNV-1">
          <mxGeometry x="925" y="955" width="70" height="30" as="geometry" />
        </mxCell>
        <mxCell id="6Ngvt-FFTPElS-cJ8Gvf-79" style="edgeStyle=none;shape=connector;rounded=0;orthogonalLoop=1;jettySize=auto;html=1;entryX=0;entryY=0;entryDx=0;entryDy=0;strokeColor=default;align=center;verticalAlign=middle;fontFamily=Helvetica;fontSize=11;fontColor=default;labelBackgroundColor=default;startFill=0;endArrow=none;" edge="1" parent="WIyWlLk6GJQsqaUBKTNV-1" source="6Ngvt-FFTPElS-cJ8Gvf-64" target="6Ngvt-FFTPElS-cJ8Gvf-72">
          <mxGeometry relative="1" as="geometry" />
        </mxCell>
        <mxCell id="6Ngvt-FFTPElS-cJ8Gvf-64" value="Hora da Selagem" style="ellipse;whiteSpace=wrap;html=1;align=center;fontFamily=Helvetica;fontSize=11;fontColor=default;labelBackgroundColor=default;" vertex="1" parent="WIyWlLk6GJQsqaUBKTNV-1">
          <mxGeometry x="810" y="795" width="70" height="30" as="geometry" />
        </mxCell>
        <mxCell id="6Ngvt-FFTPElS-cJ8Gvf-81" style="edgeStyle=none;shape=connector;rounded=0;orthogonalLoop=1;jettySize=auto;html=1;entryX=0.5;entryY=0;entryDx=0;entryDy=0;strokeColor=default;align=center;verticalAlign=middle;fontFamily=Helvetica;fontSize=11;fontColor=default;labelBackgroundColor=default;startFill=0;endArrow=none;" edge="1" parent="WIyWlLk6GJQsqaUBKTNV-1" source="6Ngvt-FFTPElS-cJ8Gvf-66" target="6Ngvt-FFTPElS-cJ8Gvf-72">
          <mxGeometry relative="1" as="geometry" />
        </mxCell>
        <mxCell id="6Ngvt-FFTPElS-cJ8Gvf-66" value="Codigo da Amostra&lt;div&gt;&lt;br&gt;&lt;/div&gt;" style="ellipse;whiteSpace=wrap;html=1;align=center;fontFamily=Helvetica;fontSize=11;fontColor=default;labelBackgroundColor=default;" vertex="1" parent="WIyWlLk6GJQsqaUBKTNV-1">
          <mxGeometry x="925" y="770" width="70" height="30" as="geometry" />
        </mxCell>
        <mxCell id="6Ngvt-FFTPElS-cJ8Gvf-105" style="edgeStyle=none;shape=connector;rounded=0;orthogonalLoop=1;jettySize=auto;html=1;entryX=0;entryY=1;entryDx=0;entryDy=0;strokeColor=default;align=center;verticalAlign=middle;fontFamily=Helvetica;fontSize=11;fontColor=default;labelBackgroundColor=default;startFill=0;endArrow=none;" edge="1" parent="WIyWlLk6GJQsqaUBKTNV-1" source="6Ngvt-FFTPElS-cJ8Gvf-68" target="6Ngvt-FFTPElS-cJ8Gvf-6">
          <mxGeometry relative="1" as="geometry" />
        </mxCell>
        <mxCell id="6Ngvt-FFTPElS-cJ8Gvf-68" value="codigo_ordem_&lt;div&gt;teste&lt;/div&gt;" style="ellipse;whiteSpace=wrap;html=1;align=center;fontFamily=Helvetica;fontSize=11;fontColor=default;labelBackgroundColor=default;" vertex="1" parent="WIyWlLk6GJQsqaUBKTNV-1">
          <mxGeometry x="1030" y="680" width="70" height="30" as="geometry" />
        </mxCell>
        <mxCell id="6Ngvt-FFTPElS-cJ8Gvf-72" value="Tipos&lt;div&gt;Amostra&lt;/div&gt;" style="whiteSpace=wrap;html=1;align=center;fillColor=#e6d0de;gradientColor=#d5739d;strokeColor=#996185;" vertex="1" parent="WIyWlLk6GJQsqaUBKTNV-1">
          <mxGeometry x="910" y="855" width="100" height="40" as="geometry" />
        </mxCell>
        <mxCell id="6Ngvt-FFTPElS-cJ8Gvf-74" style="edgeStyle=none;shape=connector;rounded=0;orthogonalLoop=1;jettySize=auto;html=1;strokeColor=default;align=center;verticalAlign=middle;fontFamily=Helvetica;fontSize=11;fontColor=default;labelBackgroundColor=default;startFill=0;endArrow=none;" edge="1" parent="WIyWlLk6GJQsqaUBKTNV-1" source="6Ngvt-FFTPElS-cJ8Gvf-73" target="6Ngvt-FFTPElS-cJ8Gvf-6">
          <mxGeometry relative="1" as="geometry" />
        </mxCell>
        <mxCell id="5KRMNu4cu_PVB4xs3GVN-47" value="N" style="edgeLabel;html=1;align=center;verticalAlign=middle;resizable=0;points=[];fontFamily=Helvetica;fontSize=11;fontColor=default;labelBackgroundColor=default;" connectable="0" vertex="1" parent="6Ngvt-FFTPElS-cJ8Gvf-74">
          <mxGeometry x="-0.0517" y="1" relative="1" as="geometry">
            <mxPoint x="-9" y="18" as="offset" />
          </mxGeometry>
        </mxCell>
        <mxCell id="6Ngvt-FFTPElS-cJ8Gvf-82" style="edgeStyle=none;shape=connector;rounded=0;orthogonalLoop=1;jettySize=auto;html=1;entryX=1;entryY=0;entryDx=0;entryDy=0;strokeColor=default;align=center;verticalAlign=middle;fontFamily=Helvetica;fontSize=11;fontColor=default;labelBackgroundColor=default;startFill=0;endArrow=none;" edge="1" parent="WIyWlLk6GJQsqaUBKTNV-1" source="6Ngvt-FFTPElS-cJ8Gvf-73" target="6Ngvt-FFTPElS-cJ8Gvf-72">
          <mxGeometry relative="1" as="geometry" />
        </mxCell>
        <mxCell id="5KRMNu4cu_PVB4xs3GVN-45" value="N" style="edgeLabel;html=1;align=center;verticalAlign=middle;resizable=0;points=[];fontFamily=Helvetica;fontSize=11;fontColor=default;labelBackgroundColor=default;" connectable="0" vertex="1" parent="6Ngvt-FFTPElS-cJ8Gvf-82">
          <mxGeometry x="-0.3949" y="-1" relative="1" as="geometry">
            <mxPoint x="12" y="-17" as="offset" />
          </mxGeometry>
        </mxCell>
        <mxCell id="6Ngvt-FFTPElS-cJ8Gvf-128" style="edgeStyle=none;shape=connector;rounded=0;orthogonalLoop=1;jettySize=auto;html=1;entryX=0;entryY=0;entryDx=0;entryDy=0;strokeColor=default;align=center;verticalAlign=middle;fontFamily=Helvetica;fontSize=11;fontColor=default;labelBackgroundColor=default;startFill=0;endArrow=none;" edge="1" parent="WIyWlLk6GJQsqaUBKTNV-1" source="6Ngvt-FFTPElS-cJ8Gvf-73" target="6Ngvt-FFTPElS-cJ8Gvf-127">
          <mxGeometry relative="1" as="geometry" />
        </mxCell>
        <mxCell id="5KRMNu4cu_PVB4xs3GVN-46" value="1" style="edgeLabel;html=1;align=center;verticalAlign=middle;resizable=0;points=[];fontFamily=Helvetica;fontSize=11;fontColor=default;labelBackgroundColor=default;" connectable="0" vertex="1" parent="6Ngvt-FFTPElS-cJ8Gvf-128">
          <mxGeometry x="-0.222" y="2" relative="1" as="geometry">
            <mxPoint x="-21" y="-24" as="offset" />
          </mxGeometry>
        </mxCell>
        <mxCell id="6Ngvt-FFTPElS-cJ8Gvf-73" value="possui" style="shape=rhombus;perimeter=rhombusPerimeter;whiteSpace=wrap;html=1;align=center;" vertex="1" parent="WIyWlLk6GJQsqaUBKTNV-1">
          <mxGeometry x="1130" y="720" width="80" height="50" as="geometry" />
        </mxCell>
        <mxCell id="6Ngvt-FFTPElS-cJ8Gvf-80" style="edgeStyle=none;shape=connector;rounded=0;orthogonalLoop=1;jettySize=auto;html=1;entryX=0;entryY=1;entryDx=0;entryDy=0;strokeColor=default;align=center;verticalAlign=middle;fontFamily=Helvetica;fontSize=11;fontColor=default;labelBackgroundColor=default;startFill=0;endArrow=none;" edge="1" parent="WIyWlLk6GJQsqaUBKTNV-1" source="6Ngvt-FFTPElS-cJ8Gvf-76" target="6Ngvt-FFTPElS-cJ8Gvf-72">
          <mxGeometry relative="1" as="geometry" />
        </mxCell>
        <mxCell id="6Ngvt-FFTPElS-cJ8Gvf-76" value="Volume da Amostra" style="ellipse;whiteSpace=wrap;html=1;align=center;fontFamily=Helvetica;fontSize=11;fontColor=default;labelBackgroundColor=default;" vertex="1" parent="WIyWlLk6GJQsqaUBKTNV-1">
          <mxGeometry x="810" y="930" width="70" height="30" as="geometry" />
        </mxCell>
        <mxCell id="6Ngvt-FFTPElS-cJ8Gvf-85" style="edgeStyle=none;shape=connector;rounded=0;orthogonalLoop=1;jettySize=auto;html=1;strokeColor=default;align=center;verticalAlign=middle;fontFamily=Helvetica;fontSize=11;fontColor=default;labelBackgroundColor=default;startFill=0;endArrow=none;" edge="1" parent="WIyWlLk6GJQsqaUBKTNV-1" source="6Ngvt-FFTPElS-cJ8Gvf-84" target="6Ngvt-FFTPElS-cJ8Gvf-73">
          <mxGeometry relative="1" as="geometry">
            <Array as="points">
              <mxPoint x="1170" y="920" />
            </Array>
          </mxGeometry>
        </mxCell>
        <mxCell id="5KRMNu4cu_PVB4xs3GVN-44" value="1" style="edgeLabel;html=1;align=center;verticalAlign=middle;resizable=0;points=[];fontFamily=Helvetica;fontSize=11;fontColor=default;labelBackgroundColor=default;" connectable="0" vertex="1" parent="6Ngvt-FFTPElS-cJ8Gvf-85">
          <mxGeometry x="-0.2132" y="2" relative="1" as="geometry">
            <mxPoint x="-8" y="-119" as="offset" />
          </mxGeometry>
        </mxCell>
        <mxCell id="5KRMNu4cu_PVB4xs3GVN-6" style="edgeStyle=none;shape=connector;rounded=0;orthogonalLoop=1;jettySize=auto;html=1;strokeColor=default;align=center;verticalAlign=middle;fontFamily=Helvetica;fontSize=11;fontColor=default;labelBackgroundColor=default;startFill=0;endArrow=none;" edge="1" parent="WIyWlLk6GJQsqaUBKTNV-1" source="6Ngvt-FFTPElS-cJ8Gvf-84" target="5KRMNu4cu_PVB4xs3GVN-5">
          <mxGeometry relative="1" as="geometry" />
        </mxCell>
        <mxCell id="5KRMNu4cu_PVB4xs3GVN-49" value="1" style="edgeLabel;html=1;align=center;verticalAlign=middle;resizable=0;points=[];fontFamily=Helvetica;fontSize=11;fontColor=default;labelBackgroundColor=default;" connectable="0" vertex="1" parent="5KRMNu4cu_PVB4xs3GVN-6">
          <mxGeometry x="0.2678" y="1" relative="1" as="geometry">
            <mxPoint x="50" y="-14" as="offset" />
          </mxGeometry>
        </mxCell>
        <mxCell id="6Ngvt-FFTPElS-cJ8Gvf-84" value="Confirmação" style="whiteSpace=wrap;html=1;align=center;fillColor=#ffcd28;gradientColor=#ffa500;strokeColor=#d79b00;" vertex="1" parent="WIyWlLk6GJQsqaUBKTNV-1">
          <mxGeometry x="1120" y="976" width="100" height="40" as="geometry" />
        </mxCell>
        <mxCell id="6Ngvt-FFTPElS-cJ8Gvf-86" value="Representante do&lt;div&gt;Atleta&lt;/div&gt;" style="whiteSpace=wrap;html=1;align=center;fillColor=#ffcd28;strokeColor=#d79b00;gradientColor=#ffa500;" vertex="1" parent="WIyWlLk6GJQsqaUBKTNV-1">
          <mxGeometry x="1522.5" y="976" width="100" height="40" as="geometry" />
        </mxCell>
        <mxCell id="5KRMNu4cu_PVB4xs3GVN-81" style="edgeStyle=orthogonalEdgeStyle;shape=connector;rounded=0;orthogonalLoop=1;jettySize=auto;html=1;entryX=0.5;entryY=1;entryDx=0;entryDy=0;strokeColor=default;align=center;verticalAlign=middle;fontFamily=Helvetica;fontSize=11;fontColor=default;labelBackgroundColor=default;startFill=0;endArrow=none;" edge="1" parent="WIyWlLk6GJQsqaUBKTNV-1" source="6Ngvt-FFTPElS-cJ8Gvf-87" target="6Ngvt-FFTPElS-cJ8Gvf-17">
          <mxGeometry relative="1" as="geometry" />
        </mxCell>
        <mxCell id="5KRMNu4cu_PVB4xs3GVN-86" value="1" style="edgeLabel;html=1;align=center;verticalAlign=middle;resizable=0;points=[];fontFamily=Helvetica;fontSize=11;fontColor=default;labelBackgroundColor=default;" connectable="0" vertex="1" parent="5KRMNu4cu_PVB4xs3GVN-81">
          <mxGeometry x="0.7368" relative="1" as="geometry">
            <mxPoint x="-20" y="-15" as="offset" />
          </mxGeometry>
        </mxCell>
        <mxCell id="6Ngvt-FFTPElS-cJ8Gvf-87" value="Oficial de Controle de Dopagem" style="whiteSpace=wrap;html=1;align=center;fillColor=#ffcd28;gradientColor=#ffa500;strokeColor=#d79b00;" vertex="1" parent="WIyWlLk6GJQsqaUBKTNV-1">
          <mxGeometry x="1522.5" y="680" width="100" height="40" as="geometry" />
        </mxCell>
        <mxCell id="6Ngvt-FFTPElS-cJ8Gvf-89" style="edgeStyle=none;shape=connector;rounded=0;orthogonalLoop=1;jettySize=auto;html=1;strokeColor=default;align=center;verticalAlign=middle;fontFamily=Helvetica;fontSize=11;fontColor=default;labelBackgroundColor=default;startFill=0;endArrow=none;" edge="1" parent="WIyWlLk6GJQsqaUBKTNV-1" source="6Ngvt-FFTPElS-cJ8Gvf-88" target="6Ngvt-FFTPElS-cJ8Gvf-84">
          <mxGeometry relative="1" as="geometry" />
        </mxCell>
        <mxCell id="6Ngvt-FFTPElS-cJ8Gvf-88" value="Código de Relatório Suplementar" style="ellipse;whiteSpace=wrap;html=1;align=center;fontFamily=Helvetica;fontSize=11;fontColor=default;labelBackgroundColor=default;" vertex="1" parent="WIyWlLk6GJQsqaUBKTNV-1">
          <mxGeometry x="1010" y="981" width="70" height="30" as="geometry" />
        </mxCell>
        <mxCell id="6Ngvt-FFTPElS-cJ8Gvf-90" style="edgeStyle=none;shape=connector;rounded=0;orthogonalLoop=1;jettySize=auto;html=1;exitX=0.75;exitY=0;exitDx=0;exitDy=0;strokeColor=default;align=center;verticalAlign=middle;fontFamily=Helvetica;fontSize=11;fontColor=default;labelBackgroundColor=default;startFill=0;endArrow=none;" edge="1" parent="WIyWlLk6GJQsqaUBKTNV-1" source="6Ngvt-FFTPElS-cJ8Gvf-86" target="6Ngvt-FFTPElS-cJ8Gvf-86">
          <mxGeometry relative="1" as="geometry" />
        </mxCell>
        <mxCell id="6Ngvt-FFTPElS-cJ8Gvf-93" style="edgeStyle=none;shape=connector;rounded=0;orthogonalLoop=1;jettySize=auto;html=1;exitX=0.5;exitY=0;exitDx=0;exitDy=0;strokeColor=default;align=center;verticalAlign=middle;fontFamily=Helvetica;fontSize=11;fontColor=default;labelBackgroundColor=default;startFill=0;endArrow=none;" edge="1" parent="WIyWlLk6GJQsqaUBKTNV-1">
          <mxGeometry relative="1" as="geometry">
            <mxPoint x="1060" y="208.75" as="sourcePoint" />
            <mxPoint x="1060" y="208.75" as="targetPoint" />
          </mxGeometry>
        </mxCell>
        <mxCell id="5KRMNu4cu_PVB4xs3GVN-70" style="edgeStyle=none;shape=connector;rounded=0;orthogonalLoop=1;jettySize=auto;html=1;strokeColor=default;align=center;verticalAlign=middle;fontFamily=Helvetica;fontSize=11;fontColor=default;labelBackgroundColor=default;startFill=0;endArrow=none;" edge="1" parent="WIyWlLk6GJQsqaUBKTNV-1" source="6Ngvt-FFTPElS-cJ8Gvf-98" target="6Ngvt-FFTPElS-cJ8Gvf-2">
          <mxGeometry relative="1" as="geometry" />
        </mxCell>
        <mxCell id="6Ngvt-FFTPElS-cJ8Gvf-98" value="Assinatura do&lt;div&gt;atleta&lt;/div&gt;" style="ellipse;whiteSpace=wrap;html=1;align=center;fontFamily=Helvetica;fontSize=11;fontColor=default;labelBackgroundColor=default;" vertex="1" parent="WIyWlLk6GJQsqaUBKTNV-1">
          <mxGeometry x="1210" y="389" width="70" height="25" as="geometry" />
        </mxCell>
        <mxCell id="6Ngvt-FFTPElS-cJ8Gvf-106" style="edgeStyle=none;shape=connector;rounded=0;orthogonalLoop=1;jettySize=auto;html=1;entryX=1;entryY=0;entryDx=0;entryDy=0;strokeColor=default;align=center;verticalAlign=middle;fontFamily=Helvetica;fontSize=11;fontColor=default;labelBackgroundColor=default;startFill=0;endArrow=none;" edge="1" parent="WIyWlLk6GJQsqaUBKTNV-1" source="6Ngvt-FFTPElS-cJ8Gvf-100" target="6Ngvt-FFTPElS-cJ8Gvf-6">
          <mxGeometry relative="1" as="geometry" />
        </mxCell>
        <mxCell id="6Ngvt-FFTPElS-cJ8Gvf-100" value="&lt;div&gt;Amostra&lt;/div&gt;&lt;div&gt;Parcial&lt;/div&gt;" style="ellipse;shape=doubleEllipse;margin=3;whiteSpace=wrap;html=1;align=center;fontFamily=Helvetica;fontSize=11;fontColor=default;labelBackgroundColor=default;" vertex="1" parent="WIyWlLk6GJQsqaUBKTNV-1">
          <mxGeometry x="1260" y="510" width="80" height="35" as="geometry" />
        </mxCell>
        <mxCell id="6Ngvt-FFTPElS-cJ8Gvf-115" style="edgeStyle=none;shape=connector;rounded=0;orthogonalLoop=1;jettySize=auto;html=1;entryX=0.5;entryY=0;entryDx=0;entryDy=0;strokeColor=default;align=center;verticalAlign=middle;fontFamily=Helvetica;fontSize=11;fontColor=default;labelBackgroundColor=default;startFill=0;endArrow=none;" edge="1" parent="WIyWlLk6GJQsqaUBKTNV-1" source="6Ngvt-FFTPElS-cJ8Gvf-108" target="6Ngvt-FFTPElS-cJ8Gvf-100">
          <mxGeometry relative="1" as="geometry" />
        </mxCell>
        <mxCell id="6Ngvt-FFTPElS-cJ8Gvf-108" value="Numero da&lt;div&gt;Amostra&lt;/div&gt;" style="ellipse;whiteSpace=wrap;html=1;align=center;fontFamily=Helvetica;fontSize=11;fontColor=default;labelBackgroundColor=default;" vertex="1" parent="WIyWlLk6GJQsqaUBKTNV-1">
          <mxGeometry x="1265" y="435" width="70" height="30" as="geometry" />
        </mxCell>
        <mxCell id="6Ngvt-FFTPElS-cJ8Gvf-124" style="edgeStyle=none;shape=connector;rounded=0;orthogonalLoop=1;jettySize=auto;html=1;strokeColor=default;align=center;verticalAlign=middle;fontFamily=Helvetica;fontSize=11;fontColor=default;labelBackgroundColor=default;startFill=0;endArrow=none;" edge="1" parent="WIyWlLk6GJQsqaUBKTNV-1" source="6Ngvt-FFTPElS-cJ8Gvf-116" target="6Ngvt-FFTPElS-cJ8Gvf-100">
          <mxGeometry relative="1" as="geometry" />
        </mxCell>
        <mxCell id="6Ngvt-FFTPElS-cJ8Gvf-116" value="Volume da Amostra" style="ellipse;whiteSpace=wrap;html=1;align=center;fontFamily=Helvetica;fontSize=11;fontColor=default;labelBackgroundColor=default;" vertex="1" parent="WIyWlLk6GJQsqaUBKTNV-1">
          <mxGeometry x="1265" y="580" width="70" height="30" as="geometry" />
        </mxCell>
        <mxCell id="6Ngvt-FFTPElS-cJ8Gvf-125" style="edgeStyle=none;shape=connector;rounded=0;orthogonalLoop=1;jettySize=auto;html=1;strokeColor=default;align=center;verticalAlign=middle;fontFamily=Helvetica;fontSize=11;fontColor=default;labelBackgroundColor=default;startFill=0;endArrow=none;" edge="1" parent="WIyWlLk6GJQsqaUBKTNV-1" source="6Ngvt-FFTPElS-cJ8Gvf-118" target="6Ngvt-FFTPElS-cJ8Gvf-100">
          <mxGeometry relative="1" as="geometry" />
        </mxCell>
        <mxCell id="6Ngvt-FFTPElS-cJ8Gvf-118" value="Hora Selagem" style="ellipse;whiteSpace=wrap;html=1;align=center;fontFamily=Helvetica;fontSize=11;fontColor=default;labelBackgroundColor=default;" vertex="1" parent="WIyWlLk6GJQsqaUBKTNV-1">
          <mxGeometry x="1364.5" y="510" width="61" height="30" as="geometry" />
        </mxCell>
        <mxCell id="6Ngvt-FFTPElS-cJ8Gvf-126" style="edgeStyle=none;shape=connector;rounded=0;orthogonalLoop=1;jettySize=auto;html=1;exitX=0.5;exitY=0;exitDx=0;exitDy=0;strokeColor=default;align=center;verticalAlign=middle;fontFamily=Helvetica;fontSize=11;fontColor=default;labelBackgroundColor=default;startFill=0;endArrow=none;" edge="1" parent="WIyWlLk6GJQsqaUBKTNV-1" source="6Ngvt-FFTPElS-cJ8Gvf-84" target="6Ngvt-FFTPElS-cJ8Gvf-84">
          <mxGeometry relative="1" as="geometry" />
        </mxCell>
        <mxCell id="6Ngvt-FFTPElS-cJ8Gvf-127" value="Evento" style="whiteSpace=wrap;html=1;align=center;fillColor=#f5f5f5;gradientColor=#b3b3b3;strokeColor=#666666;" vertex="1" parent="WIyWlLk6GJQsqaUBKTNV-1">
          <mxGeometry x="1345" y="855" width="100" height="40" as="geometry" />
        </mxCell>
        <mxCell id="6Ngvt-FFTPElS-cJ8Gvf-131" style="edgeStyle=none;shape=connector;rounded=0;orthogonalLoop=1;jettySize=auto;html=1;entryX=0.5;entryY=0;entryDx=0;entryDy=0;strokeColor=default;align=center;verticalAlign=middle;fontFamily=Helvetica;fontSize=11;fontColor=default;labelBackgroundColor=default;startFill=0;endArrow=none;" edge="1" parent="WIyWlLk6GJQsqaUBKTNV-1" source="6Ngvt-FFTPElS-cJ8Gvf-130" target="6Ngvt-FFTPElS-cJ8Gvf-127">
          <mxGeometry relative="1" as="geometry" />
        </mxCell>
        <mxCell id="6Ngvt-FFTPElS-cJ8Gvf-130" value="Competição" style="ellipse;whiteSpace=wrap;html=1;align=center;fontFamily=Helvetica;fontSize=11;fontColor=default;labelBackgroundColor=default;" vertex="1" parent="WIyWlLk6GJQsqaUBKTNV-1">
          <mxGeometry x="1360" y="795" width="70" height="30" as="geometry" />
        </mxCell>
        <mxCell id="6Ngvt-FFTPElS-cJ8Gvf-136" style="edgeStyle=none;shape=connector;rounded=0;orthogonalLoop=1;jettySize=auto;html=1;strokeColor=default;align=center;verticalAlign=middle;fontFamily=Helvetica;fontSize=11;fontColor=default;labelBackgroundColor=default;startFill=0;endArrow=none;" edge="1" parent="WIyWlLk6GJQsqaUBKTNV-1" source="6Ngvt-FFTPElS-cJ8Gvf-133" target="6Ngvt-FFTPElS-cJ8Gvf-127">
          <mxGeometry relative="1" as="geometry" />
        </mxCell>
        <mxCell id="6Ngvt-FFTPElS-cJ8Gvf-133" value="Esporte" style="ellipse;whiteSpace=wrap;html=1;align=center;fontFamily=Helvetica;fontSize=11;fontColor=default;labelBackgroundColor=default;" vertex="1" parent="WIyWlLk6GJQsqaUBKTNV-1">
          <mxGeometry x="1360" y="930" width="70" height="30" as="geometry" />
        </mxCell>
        <mxCell id="6Ngvt-FFTPElS-cJ8Gvf-135" style="edgeStyle=none;shape=connector;rounded=0;orthogonalLoop=1;jettySize=auto;html=1;strokeColor=default;align=center;verticalAlign=middle;fontFamily=Helvetica;fontSize=11;fontColor=default;labelBackgroundColor=default;startFill=0;endArrow=none;" edge="1" parent="WIyWlLk6GJQsqaUBKTNV-1" source="6Ngvt-FFTPElS-cJ8Gvf-134" target="6Ngvt-FFTPElS-cJ8Gvf-127">
          <mxGeometry relative="1" as="geometry" />
        </mxCell>
        <mxCell id="6Ngvt-FFTPElS-cJ8Gvf-134" value="Disciplina/&lt;div&gt;Função do Atleta&lt;/div&gt;" style="ellipse;whiteSpace=wrap;html=1;align=center;fontFamily=Helvetica;fontSize=11;fontColor=default;labelBackgroundColor=default;" vertex="1" parent="WIyWlLk6GJQsqaUBKTNV-1">
          <mxGeometry x="1480" y="860" width="70" height="30" as="geometry" />
        </mxCell>
        <mxCell id="6Ngvt-FFTPElS-cJ8Gvf-148" value="Equipamento" style="whiteSpace=wrap;html=1;align=center;fillColor=#e6d0de;strokeColor=#996185;gradientColor=#d5739d;" vertex="1" parent="WIyWlLk6GJQsqaUBKTNV-1">
          <mxGeometry x="1522.5" y="500" width="100" height="40" as="geometry" />
        </mxCell>
        <mxCell id="5KRMNu4cu_PVB4xs3GVN-7" style="edgeStyle=none;shape=connector;rounded=0;orthogonalLoop=1;jettySize=auto;html=1;strokeColor=default;align=center;verticalAlign=middle;fontFamily=Helvetica;fontSize=11;fontColor=default;labelBackgroundColor=default;startFill=0;endArrow=none;" edge="1" parent="WIyWlLk6GJQsqaUBKTNV-1" source="5KRMNu4cu_PVB4xs3GVN-5" target="6Ngvt-FFTPElS-cJ8Gvf-86">
          <mxGeometry relative="1" as="geometry" />
        </mxCell>
        <mxCell id="5KRMNu4cu_PVB4xs3GVN-48" value="1" style="edgeLabel;html=1;align=center;verticalAlign=middle;resizable=0;points=[];fontFamily=Helvetica;fontSize=11;fontColor=default;labelBackgroundColor=default;" connectable="0" vertex="1" parent="5KRMNu4cu_PVB4xs3GVN-7">
          <mxGeometry x="0.0402" relative="1" as="geometry">
            <mxPoint x="-45" y="-15" as="offset" />
          </mxGeometry>
        </mxCell>
        <mxCell id="5KRMNu4cu_PVB4xs3GVN-5" value="possui" style="shape=rhombus;perimeter=rhombusPerimeter;whiteSpace=wrap;html=1;align=center;" vertex="1" parent="WIyWlLk6GJQsqaUBKTNV-1">
          <mxGeometry x="1355" y="971" width="80" height="50" as="geometry" />
        </mxCell>
        <mxCell id="5KRMNu4cu_PVB4xs3GVN-11" style="edgeStyle=none;shape=connector;rounded=0;orthogonalLoop=1;jettySize=auto;html=1;entryX=0.5;entryY=0;entryDx=0;entryDy=0;strokeColor=default;align=center;verticalAlign=middle;fontFamily=Helvetica;fontSize=11;fontColor=default;labelBackgroundColor=default;startFill=0;endArrow=none;" edge="1" parent="WIyWlLk6GJQsqaUBKTNV-1" source="5KRMNu4cu_PVB4xs3GVN-8" target="6Ngvt-FFTPElS-cJ8Gvf-86">
          <mxGeometry relative="1" as="geometry" />
        </mxCell>
        <mxCell id="5KRMNu4cu_PVB4xs3GVN-8" value="Nome" style="ellipse;whiteSpace=wrap;html=1;align=center;fontFamily=Helvetica;fontSize=11;fontColor=default;labelBackgroundColor=default;" vertex="1" parent="WIyWlLk6GJQsqaUBKTNV-1">
          <mxGeometry x="1537.5" y="901" width="70" height="30" as="geometry" />
        </mxCell>
        <mxCell id="5KRMNu4cu_PVB4xs3GVN-12" style="edgeStyle=none;shape=connector;rounded=0;orthogonalLoop=1;jettySize=auto;html=1;entryX=0.25;entryY=1;entryDx=0;entryDy=0;strokeColor=default;align=center;verticalAlign=middle;fontFamily=Helvetica;fontSize=11;fontColor=default;labelBackgroundColor=default;startFill=0;endArrow=none;" edge="1" parent="WIyWlLk6GJQsqaUBKTNV-1" source="5KRMNu4cu_PVB4xs3GVN-9" target="6Ngvt-FFTPElS-cJ8Gvf-86">
          <mxGeometry relative="1" as="geometry" />
        </mxCell>
        <mxCell id="5KRMNu4cu_PVB4xs3GVN-9" value="Função" style="ellipse;whiteSpace=wrap;html=1;align=center;fontFamily=Helvetica;fontSize=11;fontColor=default;labelBackgroundColor=default;" vertex="1" parent="WIyWlLk6GJQsqaUBKTNV-1">
          <mxGeometry x="1482.5" y="1051" width="70" height="30" as="geometry" />
        </mxCell>
        <mxCell id="5KRMNu4cu_PVB4xs3GVN-64" style="edgeStyle=none;shape=connector;rounded=0;orthogonalLoop=1;jettySize=auto;html=1;entryX=0.75;entryY=1;entryDx=0;entryDy=0;strokeColor=default;align=center;verticalAlign=middle;fontFamily=Helvetica;fontSize=11;fontColor=default;labelBackgroundColor=default;startFill=0;endArrow=none;" edge="1" parent="WIyWlLk6GJQsqaUBKTNV-1" source="5KRMNu4cu_PVB4xs3GVN-10" target="6Ngvt-FFTPElS-cJ8Gvf-86">
          <mxGeometry relative="1" as="geometry" />
        </mxCell>
        <mxCell id="5KRMNu4cu_PVB4xs3GVN-10" value="Assinatura" style="ellipse;whiteSpace=wrap;html=1;align=center;fontFamily=Helvetica;fontSize=11;fontColor=default;labelBackgroundColor=default;" vertex="1" parent="WIyWlLk6GJQsqaUBKTNV-1">
          <mxGeometry x="1607.5" y="1051" width="70" height="30" as="geometry" />
        </mxCell>
        <mxCell id="5KRMNu4cu_PVB4xs3GVN-16" style="edgeStyle=none;shape=connector;rounded=0;orthogonalLoop=1;jettySize=auto;html=1;entryX=0;entryY=0;entryDx=0;entryDy=0;strokeColor=default;align=center;verticalAlign=middle;fontFamily=Helvetica;fontSize=11;fontColor=default;labelBackgroundColor=default;startFill=0;endArrow=none;" edge="1" parent="WIyWlLk6GJQsqaUBKTNV-1" source="5KRMNu4cu_PVB4xs3GVN-14" target="6Ngvt-FFTPElS-cJ8Gvf-84">
          <mxGeometry relative="1" as="geometry" />
        </mxCell>
        <mxCell id="5KRMNu4cu_PVB4xs3GVN-14" value="Data de Confirmação" style="ellipse;whiteSpace=wrap;html=1;align=center;fontFamily=Helvetica;fontSize=11;fontColor=default;labelBackgroundColor=default;" vertex="1" parent="WIyWlLk6GJQsqaUBKTNV-1">
          <mxGeometry x="1050" y="920" width="70" height="31" as="geometry" />
        </mxCell>
        <mxCell id="5KRMNu4cu_PVB4xs3GVN-17" style="edgeStyle=none;shape=connector;rounded=0;orthogonalLoop=1;jettySize=auto;html=1;entryX=0;entryY=1;entryDx=0;entryDy=0;strokeColor=default;align=center;verticalAlign=middle;fontFamily=Helvetica;fontSize=11;fontColor=default;labelBackgroundColor=default;startFill=0;endArrow=none;" edge="1" parent="WIyWlLk6GJQsqaUBKTNV-1" source="5KRMNu4cu_PVB4xs3GVN-15" target="6Ngvt-FFTPElS-cJ8Gvf-84">
          <mxGeometry relative="1" as="geometry" />
        </mxCell>
        <mxCell id="5KRMNu4cu_PVB4xs3GVN-15" value="Hora de Finalização" style="ellipse;whiteSpace=wrap;html=1;align=center;fontFamily=Helvetica;fontSize=11;fontColor=default;labelBackgroundColor=default;" vertex="1" parent="WIyWlLk6GJQsqaUBKTNV-1">
          <mxGeometry x="1050" y="1041" width="70" height="30" as="geometry" />
        </mxCell>
        <mxCell id="5KRMNu4cu_PVB4xs3GVN-21" style="edgeStyle=none;shape=connector;rounded=0;orthogonalLoop=1;jettySize=auto;html=1;strokeColor=default;align=center;verticalAlign=middle;fontFamily=Helvetica;fontSize=11;fontColor=default;labelBackgroundColor=default;startFill=0;endArrow=none;" edge="1" parent="WIyWlLk6GJQsqaUBKTNV-1" source="5KRMNu4cu_PVB4xs3GVN-18" target="6Ngvt-FFTPElS-cJ8Gvf-87">
          <mxGeometry relative="1" as="geometry" />
        </mxCell>
        <mxCell id="5KRMNu4cu_PVB4xs3GVN-18" value="Nome" style="ellipse;whiteSpace=wrap;html=1;align=center;fontFamily=Helvetica;fontSize=11;fontColor=default;labelBackgroundColor=default;" vertex="1" parent="WIyWlLk6GJQsqaUBKTNV-1">
          <mxGeometry x="1537.5" y="750" width="70" height="30" as="geometry" />
        </mxCell>
        <mxCell id="5KRMNu4cu_PVB4xs3GVN-22" style="edgeStyle=none;shape=connector;rounded=0;orthogonalLoop=1;jettySize=auto;html=1;strokeColor=default;align=center;verticalAlign=middle;fontFamily=Helvetica;fontSize=11;fontColor=default;labelBackgroundColor=default;startFill=0;endArrow=none;" edge="1" parent="WIyWlLk6GJQsqaUBKTNV-1" source="5KRMNu4cu_PVB4xs3GVN-20" target="6Ngvt-FFTPElS-cJ8Gvf-87">
          <mxGeometry relative="1" as="geometry" />
        </mxCell>
        <mxCell id="5KRMNu4cu_PVB4xs3GVN-20" value="Assinatura" style="ellipse;whiteSpace=wrap;html=1;align=center;fontFamily=Helvetica;fontSize=11;fontColor=default;labelBackgroundColor=default;" vertex="1" parent="WIyWlLk6GJQsqaUBKTNV-1">
          <mxGeometry x="1650" y="685" width="70" height="30" as="geometry" />
        </mxCell>
        <mxCell id="5KRMNu4cu_PVB4xs3GVN-75" style="edgeStyle=none;shape=connector;rounded=0;orthogonalLoop=1;jettySize=auto;html=1;entryX=0;entryY=0;entryDx=0;entryDy=0;strokeColor=default;align=center;verticalAlign=middle;fontFamily=Helvetica;fontSize=11;fontColor=default;labelBackgroundColor=default;startFill=0;endArrow=none;" edge="1" parent="WIyWlLk6GJQsqaUBKTNV-1" source="5KRMNu4cu_PVB4xs3GVN-24" target="6Ngvt-FFTPElS-cJ8Gvf-7">
          <mxGeometry relative="1" as="geometry" />
        </mxCell>
        <mxCell id="5KRMNu4cu_PVB4xs3GVN-24" value="Autoridade de&lt;div&gt;Coleta&lt;/div&gt;" style="ellipse;whiteSpace=wrap;html=1;align=center;fontFamily=Helvetica;fontSize=11;fontColor=default;labelBackgroundColor=default;" vertex="1" parent="WIyWlLk6GJQsqaUBKTNV-1">
          <mxGeometry x="585" y="640" width="80" height="30" as="geometry" />
        </mxCell>
        <mxCell id="5KRMNu4cu_PVB4xs3GVN-27" style="edgeStyle=none;shape=connector;rounded=0;orthogonalLoop=1;jettySize=auto;html=1;entryX=0;entryY=1;entryDx=0;entryDy=0;strokeColor=default;align=center;verticalAlign=middle;fontFamily=Helvetica;fontSize=11;fontColor=default;labelBackgroundColor=default;startFill=0;endArrow=none;" edge="1" parent="WIyWlLk6GJQsqaUBKTNV-1" source="5KRMNu4cu_PVB4xs3GVN-26" target="6Ngvt-FFTPElS-cJ8Gvf-2">
          <mxGeometry relative="1" as="geometry" />
        </mxCell>
        <mxCell id="5KRMNu4cu_PVB4xs3GVN-26" value="Telefone" style="ellipse;whiteSpace=wrap;html=1;align=center;fontFamily=Helvetica;fontSize=11;fontColor=default;labelBackgroundColor=default;" vertex="1" parent="WIyWlLk6GJQsqaUBKTNV-1">
          <mxGeometry x="1035" y="355" width="70" height="25" as="geometry" />
        </mxCell>
        <mxCell id="5KRMNu4cu_PVB4xs3GVN-29" style="edgeStyle=none;shape=connector;rounded=0;orthogonalLoop=1;jettySize=auto;html=1;entryX=1;entryY=1;entryDx=0;entryDy=0;strokeColor=default;align=center;verticalAlign=middle;fontFamily=Helvetica;fontSize=11;fontColor=default;labelBackgroundColor=default;startFill=0;endArrow=none;" edge="1" parent="WIyWlLk6GJQsqaUBKTNV-1" source="5KRMNu4cu_PVB4xs3GVN-28" target="6Ngvt-FFTPElS-cJ8Gvf-6">
          <mxGeometry relative="1" as="geometry" />
        </mxCell>
        <mxCell id="5KRMNu4cu_PVB4xs3GVN-28" value="hora_chegada_&lt;div&gt;atleta&lt;/div&gt;" style="ellipse;whiteSpace=wrap;html=1;align=center;fontFamily=Helvetica;fontSize=11;fontColor=default;labelBackgroundColor=default;" vertex="1" parent="WIyWlLk6GJQsqaUBKTNV-1">
          <mxGeometry x="1270" y="680" width="70" height="30" as="geometry" />
        </mxCell>
        <mxCell id="5KRMNu4cu_PVB4xs3GVN-66" style="edgeStyle=none;shape=connector;rounded=0;orthogonalLoop=1;jettySize=auto;html=1;entryX=0.25;entryY=0;entryDx=0;entryDy=0;strokeColor=default;align=center;verticalAlign=middle;fontFamily=Helvetica;fontSize=11;fontColor=default;labelBackgroundColor=default;startFill=0;endArrow=none;" edge="1" parent="WIyWlLk6GJQsqaUBKTNV-1" source="-8mvUfJAmF48m_jKIqAP-0" target="6Ngvt-FFTPElS-cJ8Gvf-2">
          <mxGeometry relative="1" as="geometry" />
        </mxCell>
        <mxCell id="-8mvUfJAmF48m_jKIqAP-0" value="Sobrenome" style="ellipse;whiteSpace=wrap;html=1;align=center;fontFamily=Helvetica;fontSize=11;fontColor=default;labelBackgroundColor=default;" vertex="1" parent="WIyWlLk6GJQsqaUBKTNV-1">
          <mxGeometry x="1065" y="241.25" width="70" height="23.75" as="geometry" />
        </mxCell>
        <mxCell id="5KRMNu4cu_PVB4xs3GVN-32" style="edgeStyle=none;shape=connector;rounded=0;orthogonalLoop=1;jettySize=auto;html=1;strokeColor=default;align=center;verticalAlign=middle;fontFamily=Helvetica;fontSize=11;fontColor=default;labelBackgroundColor=default;startFill=0;endArrow=none;" edge="1" parent="WIyWlLk6GJQsqaUBKTNV-1" source="5KRMNu4cu_PVB4xs3GVN-30" target="6Ngvt-FFTPElS-cJ8Gvf-148">
          <mxGeometry relative="1" as="geometry" />
        </mxCell>
        <mxCell id="5KRMNu4cu_PVB4xs3GVN-30" value="Marca do Fabricante" style="ellipse;whiteSpace=wrap;html=1;align=center;fontFamily=Helvetica;fontSize=11;fontColor=default;labelBackgroundColor=default;" vertex="1" parent="WIyWlLk6GJQsqaUBKTNV-1">
          <mxGeometry x="1537.5" y="450" width="70" height="30" as="geometry" />
        </mxCell>
        <mxCell id="5KRMNu4cu_PVB4xs3GVN-33" style="edgeStyle=none;shape=connector;rounded=0;orthogonalLoop=1;jettySize=auto;html=1;strokeColor=default;align=center;verticalAlign=middle;fontFamily=Helvetica;fontSize=11;fontColor=default;labelBackgroundColor=default;startFill=0;endArrow=none;" edge="1" parent="WIyWlLk6GJQsqaUBKTNV-1" source="5KRMNu4cu_PVB4xs3GVN-31" target="6Ngvt-FFTPElS-cJ8Gvf-148">
          <mxGeometry relative="1" as="geometry" />
        </mxCell>
        <mxCell id="5KRMNu4cu_PVB4xs3GVN-31" value="Modelo do&lt;div&gt;Aparelho&lt;/div&gt;" style="ellipse;whiteSpace=wrap;html=1;align=center;fontFamily=Helvetica;fontSize=11;fontColor=default;labelBackgroundColor=default;" vertex="1" parent="WIyWlLk6GJQsqaUBKTNV-1">
          <mxGeometry x="1642.5" y="505" width="70" height="30" as="geometry" />
        </mxCell>
        <mxCell id="5KRMNu4cu_PVB4xs3GVN-34" style="edgeStyle=none;shape=connector;rounded=0;orthogonalLoop=1;jettySize=auto;html=1;exitX=0.5;exitY=0;exitDx=0;exitDy=0;strokeColor=default;align=center;verticalAlign=middle;fontFamily=Helvetica;fontSize=11;fontColor=default;labelBackgroundColor=default;startFill=0;endArrow=none;" edge="1" parent="WIyWlLk6GJQsqaUBKTNV-1" source="5KRMNu4cu_PVB4xs3GVN-30" target="5KRMNu4cu_PVB4xs3GVN-30">
          <mxGeometry relative="1" as="geometry" />
        </mxCell>
        <mxCell id="5KRMNu4cu_PVB4xs3GVN-38" style="edgeStyle=none;shape=connector;rounded=0;orthogonalLoop=1;jettySize=auto;html=1;strokeColor=default;align=center;verticalAlign=middle;fontFamily=Helvetica;fontSize=11;fontColor=default;labelBackgroundColor=default;startFill=0;endArrow=none;" edge="1" parent="WIyWlLk6GJQsqaUBKTNV-1" source="5KRMNu4cu_PVB4xs3GVN-37" target="6Ngvt-FFTPElS-cJ8Gvf-72">
          <mxGeometry relative="1" as="geometry" />
        </mxCell>
        <mxCell id="5KRMNu4cu_PVB4xs3GVN-37" value="Densidade da&lt;div&gt;Amostra&lt;/div&gt;" style="ellipse;whiteSpace=wrap;html=1;align=center;fontFamily=Helvetica;fontSize=11;fontColor=default;labelBackgroundColor=default;" vertex="1" parent="WIyWlLk6GJQsqaUBKTNV-1">
          <mxGeometry x="765" y="860" width="70" height="30" as="geometry" />
        </mxCell>
        <mxCell id="5KRMNu4cu_PVB4xs3GVN-63" style="edgeStyle=none;shape=connector;rounded=0;orthogonalLoop=1;jettySize=auto;html=1;entryX=0.5;entryY=0;entryDx=0;entryDy=0;strokeColor=default;align=center;verticalAlign=middle;fontFamily=Helvetica;fontSize=11;fontColor=default;labelBackgroundColor=default;startFill=0;endArrow=none;" edge="1" parent="WIyWlLk6GJQsqaUBKTNV-1" source="5KRMNu4cu_PVB4xs3GVN-57" target="6Ngvt-FFTPElS-cJ8Gvf-7">
          <mxGeometry relative="1" as="geometry" />
        </mxCell>
        <mxCell id="5KRMNu4cu_PVB4xs3GVN-57" value="Autoridade de&amp;nbsp;&lt;div&gt;Teste&lt;/div&gt;" style="ellipse;whiteSpace=wrap;html=1;align=center;fontFamily=Helvetica;fontSize=11;fontColor=default;labelBackgroundColor=default;" vertex="1" parent="WIyWlLk6GJQsqaUBKTNV-1">
          <mxGeometry x="690" y="620" width="80" height="30" as="geometry" />
        </mxCell>
        <mxCell id="5KRMNu4cu_PVB4xs3GVN-62" style="edgeStyle=none;shape=connector;rounded=0;orthogonalLoop=1;jettySize=auto;html=1;entryX=0.5;entryY=1;entryDx=0;entryDy=0;strokeColor=default;align=center;verticalAlign=middle;fontFamily=Helvetica;fontSize=11;fontColor=default;labelBackgroundColor=default;startFill=0;endArrow=none;" edge="1" parent="WIyWlLk6GJQsqaUBKTNV-1" source="5KRMNu4cu_PVB4xs3GVN-58" target="6Ngvt-FFTPElS-cJ8Gvf-7">
          <mxGeometry relative="1" as="geometry" />
        </mxCell>
        <mxCell id="5KRMNu4cu_PVB4xs3GVN-58" value="Autoridade de Controle de Dopagem" style="ellipse;whiteSpace=wrap;html=1;align=center;fontFamily=Helvetica;fontSize=11;fontColor=default;labelBackgroundColor=default;" vertex="1" parent="WIyWlLk6GJQsqaUBKTNV-1">
          <mxGeometry x="690" y="770" width="80" height="30" as="geometry" />
        </mxCell>
        <mxCell id="5KRMNu4cu_PVB4xs3GVN-76" style="edgeStyle=none;shape=connector;rounded=0;orthogonalLoop=1;jettySize=auto;html=1;entryX=0;entryY=1;entryDx=0;entryDy=0;strokeColor=default;align=center;verticalAlign=middle;fontFamily=Helvetica;fontSize=11;fontColor=default;labelBackgroundColor=default;startFill=0;endArrow=none;" edge="1" parent="WIyWlLk6GJQsqaUBKTNV-1" source="5KRMNu4cu_PVB4xs3GVN-59" target="6Ngvt-FFTPElS-cJ8Gvf-7">
          <mxGeometry relative="1" as="geometry" />
        </mxCell>
        <mxCell id="5KRMNu4cu_PVB4xs3GVN-59" value="Autoridade de Gestão de Resultados" style="ellipse;whiteSpace=wrap;html=1;align=center;fontFamily=Helvetica;fontSize=11;fontColor=default;labelBackgroundColor=default;" vertex="1" parent="WIyWlLk6GJQsqaUBKTNV-1">
          <mxGeometry x="585" y="750" width="80" height="30" as="geometry" />
        </mxCell>
        <mxCell id="5KRMNu4cu_PVB4xs3GVN-83" style="edgeStyle=none;shape=connector;rounded=0;orthogonalLoop=1;jettySize=auto;html=1;entryX=0.25;entryY=1;entryDx=0;entryDy=0;strokeColor=default;align=center;verticalAlign=middle;fontFamily=Helvetica;fontSize=11;fontColor=default;labelBackgroundColor=default;startFill=0;endArrow=none;" edge="1" parent="WIyWlLk6GJQsqaUBKTNV-1" source="5KRMNu4cu_PVB4xs3GVN-67" target="6Ngvt-FFTPElS-cJ8Gvf-2">
          <mxGeometry relative="1" as="geometry" />
        </mxCell>
        <mxCell id="5KRMNu4cu_PVB4xs3GVN-67" value="Nascimento" style="ellipse;whiteSpace=wrap;html=1;align=center;fontFamily=Helvetica;fontSize=11;fontColor=default;labelBackgroundColor=default;" vertex="1" parent="WIyWlLk6GJQsqaUBKTNV-1">
          <mxGeometry x="1055" y="386" width="70" height="27.5" as="geometry" />
        </mxCell>
        <mxCell id="5KRMNu4cu_PVB4xs3GVN-82" style="edgeStyle=none;shape=connector;rounded=0;orthogonalLoop=1;jettySize=auto;html=1;entryX=1;entryY=1;entryDx=0;entryDy=0;strokeColor=default;align=center;verticalAlign=middle;fontFamily=Helvetica;fontSize=11;fontColor=default;labelBackgroundColor=default;startFill=0;endArrow=none;" edge="1" parent="WIyWlLk6GJQsqaUBKTNV-1" source="5KRMNu4cu_PVB4xs3GVN-69" target="6Ngvt-FFTPElS-cJ8Gvf-2">
          <mxGeometry relative="1" as="geometry" />
        </mxCell>
        <mxCell id="5KRMNu4cu_PVB4xs3GVN-69" value="Sexo" style="ellipse;whiteSpace=wrap;html=1;align=center;fontFamily=Helvetica;fontSize=11;fontColor=default;labelBackgroundColor=default;" vertex="1" parent="WIyWlLk6GJQsqaUBKTNV-1">
          <mxGeometry x="1235" y="353.75" width="70" height="27.5" as="geometry" />
        </mxCell>
        <mxCell id="5KRMNu4cu_PVB4xs3GVN-85" style="edgeStyle=none;shape=connector;rounded=0;orthogonalLoop=1;jettySize=auto;html=1;exitX=1;exitY=0;exitDx=0;exitDy=0;strokeColor=default;align=center;verticalAlign=middle;fontFamily=Helvetica;fontSize=11;fontColor=default;labelBackgroundColor=default;startFill=0;endArrow=none;" edge="1" parent="WIyWlLk6GJQsqaUBKTNV-1" source="6Ngvt-FFTPElS-cJ8Gvf-133" target="6Ngvt-FFTPElS-cJ8Gvf-133">
          <mxGeometry relative="1" as="geometry" />
        </mxCell>
        <mxCell id="5KRMNu4cu_PVB4xs3GVN-90" style="edgeStyle=none;shape=connector;rounded=0;orthogonalLoop=1;jettySize=auto;html=1;strokeColor=default;align=center;verticalAlign=middle;fontFamily=Helvetica;fontSize=11;fontColor=default;labelBackgroundColor=default;startFill=0;endArrow=none;" edge="1" parent="WIyWlLk6GJQsqaUBKTNV-1" source="5KRMNu4cu_PVB4xs3GVN-87" target="5KRMNu4cu_PVB4xs3GVN-89">
          <mxGeometry relative="1" as="geometry" />
        </mxCell>
        <mxCell id="5KRMNu4cu_PVB4xs3GVN-87" value="Documentação" style="ellipse;whiteSpace=wrap;html=1;align=center;fontFamily=Helvetica;fontSize=11;fontColor=default;labelBackgroundColor=default;" vertex="1" parent="WIyWlLk6GJQsqaUBKTNV-1">
          <mxGeometry x="1135" y="217.5" width="70" height="23.75" as="geometry" />
        </mxCell>
        <mxCell id="5KRMNu4cu_PVB4xs3GVN-89" value="Numero" style="ellipse;whiteSpace=wrap;html=1;align=center;fontFamily=Helvetica;fontSize=11;fontColor=default;labelBackgroundColor=default;" vertex="1" parent="WIyWlLk6GJQsqaUBKTNV-1">
          <mxGeometry x="1135" y="160" width="70" height="23.75" as="geometry" />
        </mxCell>
      </root>
    </mxGraphModel>
  </diagram>
</mxfile>
